<svg viewBox="0 0 56.693 56.693" xml:space="preserve" xmlns="http://www.w3.org/2000/svg"><path d="M28.346 5.157C14.747 5.157 3.722 16.18 3.722 29.78c0 13.6 11.024 24.625 24.624 24.625 13.602 0 24.625-11.025 24.625-24.625S41.947 5.157 28.346 5.157zm2.152 14.025c-.469-.668-1.338-1.006-2.143-1.006h-.268c-1.34.135-2.545.871-2.879 2.346-.066.334-.268.668-.67.736l-3.748-.469c-.269-.066-.67-.268-.538-.803.805-4.221 4.42-5.693 7.834-5.891h.805c1.875 0 4.285.535 5.824 1.939 1.875 1.74 1.674 4.086 1.674 6.627v6.027c0 1.809.738 2.611 1.473 3.549.203.334.27.738-.066 1.006-.734.67-2.141 1.875-2.945 2.545-.268.197-.604.197-.938.064-1.271-1.07-1.473-1.539-2.209-2.543-1.273 1.338-2.344 2.074-3.617 2.479-.803.197-1.674.332-2.744.332-3.215 0-5.76-2.006-5.76-5.959 0-3.145 1.676-5.289 4.153-6.295 1.271-.602 2.812-.869 4.352-1.07 1.004-.135 2.01-.201 2.879-.268v-.533c0-.936.068-2.008-.469-2.813zM40.639 40.28c-.389.312-.805.592-1.219.84l-.018.012c-3.164 1.988-7.242 3.207-10.848 3.285a9.498 9.498 0 0 1-.336.006c-5.668-.002-9.882-3.102-13.727-6.439a.807.807 0 0 1-.318-.625.687.687 0 0 1 .217-.508.747.747 0 0 1 .511-.199c.146 0 .289.039.433.117 4.098 2.273 8.159 4.578 13.133 4.578.115 0 .232 0 .348-.004 3.166-.068 6.584-.842 9.84-2.162v-.004l.301-.119.23-.096c.156-.068.322-.143.484-.207.145-.068.301-.104.451-.104.477.002.918.352.926.871.004.295-.164.577-.408.758zm1.859 1.375a.904.904 0 0 1-.555.209h-.004a.652.652 0 0 1-.447-.174.645.645 0 0 1-.195-.471c0-.107.021-.205.057-.295.146-.387.367-.969.551-1.553.186-.578.324-1.176.318-1.498a.583.583 0 0 0-.016-.168.824.824 0 0 0-.207-.067 3.141 3.141 0 0 0-.682-.055c-.385 0-.828.035-1.246.076-.486.074-.902.113-1.186.172l-.023.006-.027.002a1.366 1.366 0 0 1-.096.004.718.718 0 0 1-.449-.15.62.62 0 0 1-.223-.477c.01-.309.18-.51.383-.66a5.02 5.02 0 0 1 1.064-.596v-.018l.33-.107.01-.002.586-.197v.039a7.897 7.897 0 0 1 1.68-.176c.729.002 1.332.09 1.746.248.141.061.268.115.402.262l.016.02.014.021c.133.199.201.438.213.758l.004.188c-.022 1.2-.536 3.325-2.018 4.659z" fill="#ff4b4b" class="fill-000000"></path><path d="M30.967 25.612c-1.004 0-2.008.064-2.879.266-1.605.471-2.879 1.475-2.879 3.617 0 1.674.871 2.811 2.344 2.811.201 0 .402-.066.535-.066.871-.201 1.676-.805 2.143-1.74.805-1.34.736-2.547.736-4.084v-.804z" fill="#ff4b4b" class="fill-000000"></path></svg>