<svg viewBox="0 0 640 512" xmlns="http://www.w3.org/2000/svg"><path d="M629.3 448H592V288c0-17.67-12.89-31.1-28.8-31.1H332.8C316.9 256 304 270.3 304 288v159.1l-37.3.9c-5.9 0-10.7 4.8-10.7 10.7v10.67c.053 23.47 19.13 42.58 42.6 42.67h298.8c23.5-.14 42.5-19.24 42.6-42.74v-10.67c0-5.83-4.8-10.63-10.7-10.63zm-85.3 0H352V304h192v144zM271.1 288h-64c-8.875 0-16-7.124-16-15.1V208c0-8.875 7.125-15.1 16-15.1h63.1c8.875 0 16 7.125 16 15.1l-.003 37.1C299.1 232.2 315 224 332.8 224H480a32.006 32.006 0 0 0-10.3-23.5L261.7 9.4C255.6 2.856 247.8.01 239.1.01c-.003 0 .003 0 0 0a31.916 31.916 0 0 0-21.7 8.502l-208 191.1C3.598 206.7 0 215.2 0 224c0 17.54 14.21 31.1 31.1 31.1h31.1l-.003 111.1c0 26.4 21.6 47.1 48 47.1l160 .015L271.1 288z" fill="#ff4b4b" class="fill-000000"></path></svg>