<svg viewBox="0 0 512 512" xml:space="preserve" xmlns="http://www.w3.org/2000/svg"><path d="M-733.623 72.268c0 203.805-165.217 369.021-369.022 369.021-203.805 0-369.021-165.216-369.021-369.021s165.216-369.021 369.021-369.021 369.022 165.216 369.022 369.02z" transform="matrix(.69373 0 0 .69373 1020.934 205.866)" fill="#ff4b4b" fill-opacity="1" fill-rule="nonzero" stroke="none" class="fill-000000"></path><g fill="#ffffff" fill-opacity="1" class="fill-ffffff"><path d="M3631.219 21686.344v354.594h454.625v-354.594h-454.625zm16 16h422.625v322.594h-422.625v-322.594z" style="text-indent:0;text-align:start;line-height:normal;text-transform:none;block-progression:tb;marker:none;-inkscape-font-specification:Sans" transform="matrix(.7302 0 0 .7302 -2561.478 -15710.347)" font-size="medium" font-style="normal" font-variant="normal" font-weight="400" font-stretch="normal" text-decoration="none" letter-spacing="normal" word-spacing="normal" direction="ltr" writing-mode="lr-tb" text-anchor="start" baseline-shift="baseline" color="#000000" fill="#ffffff" fill-opacity="1" stroke="none" stroke-width="16" visibility="visible" display="inline" overflow="visible" enable-background="accumulate" font-family="Sans" class="fill-ffffff"></path><path d="M4004.61 21926.179c-27.694 16.49-62.488 27.494-110.622 28.451l.411 20.644c51.128-1.015 89.978-12.979 120.79-31.326l-10.58-17.769zM3711.674 21924.845l-9.552 18.383c58.236 29.969 118.967 36.783 181.903 32.766l-1.335-20.746c-60.647 3.868-116.844-2.528-171.016-30.403zM3745.877 21748.074v52.898h20.645v-52.898h-20.645zM3937.744 21748.074v52.898h20.748v-52.898h-20.748z" style="text-indent:0;text-align:start;line-height:normal;text-transform:none;block-progression:tb;marker:none;-inkscape-font-specification:Sans" transform="matrix(.7302 0 0 .7302 -2561.478 -15710.347)" font-size="medium" font-style="normal" font-variant="normal" font-weight="400" font-stretch="normal" text-decoration="none" letter-spacing="normal" word-spacing="normal" direction="ltr" writing-mode="lr-tb" text-anchor="start" baseline-shift="baseline" color="#000000" fill="#ffffff" fill-opacity="1" stroke="none" stroke-width="6.30000019" visibility="visible" display="inline" overflow="visible" enable-background="accumulate" font-family="Sans" class="fill-ffffff"></path><path d="M3918.537 21629.648c-56.851 67.218-106.44 155.666-111.854 259.555l-.616 10.886h80.012c-16.51 68.129-4.783 141.661 25.884 202.036l18.488-9.348c-30.437-59.925-41.157-134.42-21.364-200.084l4.006-13.35H3828.458c7.908-93.237 53.068-173.882 105.897-236.341l-15.818-13.354z" style="text-indent:0;text-align:start;line-height:normal;text-transform:none;block-progression:tb;marker:none;-inkscape-font-specification:Sans" transform="matrix(.7302 0 0 .7302 -2561.478 -15710.347)" font-size="medium" font-style="normal" font-variant="normal" font-weight="400" font-stretch="normal" text-decoration="none" letter-spacing="normal" word-spacing="normal" direction="ltr" writing-mode="lr-tb" text-anchor="start" baseline-shift="baseline" color="#000000" fill="#ffffff" fill-opacity="1" stroke="none" stroke-width="6.30000019" visibility="visible" display="inline" overflow="visible" enable-background="accumulate" font-family="Sans" class="fill-ffffff"></path></g></svg>