<svg viewBox="0 0 24 24" xml:space="preserve" xmlns="http://www.w3.org/2000/svg"><path d="M23 2h-9c-.6 0-1 .4-1 1v1H1c-.6 0-1 .2-1 .8v13c0 .5.4 1.2 1 1.2h8v2H6c-.6 0-1 .2-1 .8V24h17c1.6 0 2-.4 2-1V3c0-.6-.4-1-1-1zM13 23H6v-1h7v1zm0-2h-2v-2h2v2zm0-4H2v-1h11v1zm0-2H2V6h11v9zm9 7h-7V4h7v18z" fill="#ff4b4b" class="fill-000000"></path><path d="M16 6h5v1h-5zM16 8h5v1h-5zM16 10h5v1h-5z" fill="#ff4b4b" class="fill-000000"></path><circle cx="18.5" cy="19.5" r=".5" fill="#ff4b4b" class="fill-000000"></circle></svg>